<mxfile host="app.diagrams.net" modified="2024-01-25T23:51:58.710Z" agent="Mozilla/5.0 (X11; Linux x86_64; rv:122.0) Gecko/20100101 Firefox/122.0" etag="ZpFw67U83nNiwR6QNy94" version="23.0.2" type="device">
  <diagram name="Page-1" id="MTa7KK53sGM9xlJGn2aR">
    <mxGraphModel dx="2607" dy="1436" grid="1" gridSize="10" guides="1" tooltips="1" connect="1" arrows="1" fold="1" page="1" pageScale="1" pageWidth="1600" pageHeight="1200" math="0" shadow="0">
      <root>
        <mxCell id="0" />
        <mxCell id="1" parent="0" />
        <mxCell id="FjmwERVzqnJXqa8R_X29-38" style="edgeStyle=orthogonalEdgeStyle;rounded=0;orthogonalLoop=1;jettySize=auto;html=1;exitX=0.5;exitY=0;exitDx=0;exitDy=0;entryX=0.5;entryY=1;entryDx=0;entryDy=0;" edge="1" parent="1" source="FjmwERVzqnJXqa8R_X29-1" target="FjmwERVzqnJXqa8R_X29-14">
          <mxGeometry relative="1" as="geometry" />
        </mxCell>
        <mxCell id="FjmwERVzqnJXqa8R_X29-1" value="&lt;div&gt;&lt;font style=&quot;font-size: 25px;&quot; data-font-src=&quot;https://fonts.googleapis.com/css?family=Noto+Sans&quot;&gt;Investigation&lt;/font&gt;&lt;/div&gt;&lt;div style=&quot;font-size: 22px;&quot;&gt;&lt;font style=&quot;font-size: 22px;&quot; data-font-src=&quot;https://fonts.googleapis.com/css?family=Noto+Sans&quot;&gt;(Identifier, Title)&lt;br&gt;&lt;/font&gt;&lt;/div&gt;" style="rounded=0;whiteSpace=wrap;html=1;direction=south;fontFamily=Noto Sans;fontSource=https%3A%2F%2Ffonts.googleapis.com%2Fcss%3Ffamily%3DNoto%2BSans;fillColor=#ffe6cc;strokeColor=#d79b00;" vertex="1" parent="1">
          <mxGeometry x="680" y="40" width="240" height="120" as="geometry" />
        </mxCell>
        <mxCell id="FjmwERVzqnJXqa8R_X29-46" style="edgeStyle=orthogonalEdgeStyle;rounded=0;orthogonalLoop=1;jettySize=auto;html=1;exitX=0.5;exitY=1;exitDx=0;exitDy=0;entryX=0.5;entryY=0;entryDx=0;entryDy=0;" edge="1" parent="1" source="FjmwERVzqnJXqa8R_X29-2" target="FjmwERVzqnJXqa8R_X29-6">
          <mxGeometry relative="1" as="geometry" />
        </mxCell>
        <mxCell id="FjmwERVzqnJXqa8R_X29-49" style="edgeStyle=orthogonalEdgeStyle;rounded=0;orthogonalLoop=1;jettySize=auto;html=1;exitX=0.5;exitY=0;exitDx=0;exitDy=0;entryX=0.5;entryY=1;entryDx=0;entryDy=0;" edge="1" parent="1" source="FjmwERVzqnJXqa8R_X29-2" target="FjmwERVzqnJXqa8R_X29-15">
          <mxGeometry relative="1" as="geometry" />
        </mxCell>
        <mxCell id="FjmwERVzqnJXqa8R_X29-60" style="edgeStyle=orthogonalEdgeStyle;rounded=0;orthogonalLoop=1;jettySize=auto;html=1;exitX=1;exitY=0.5;exitDx=0;exitDy=0;entryX=0;entryY=0.5;entryDx=0;entryDy=0;" edge="1" parent="1" source="FjmwERVzqnJXqa8R_X29-2" target="FjmwERVzqnJXqa8R_X29-3">
          <mxGeometry relative="1" as="geometry" />
        </mxCell>
        <mxCell id="FjmwERVzqnJXqa8R_X29-2" value="&lt;div&gt;&lt;font style=&quot;font-size: 25px;&quot; data-font-src=&quot;https://fonts.googleapis.com/css?family=Noto+Sans&quot;&gt;Study&lt;/font&gt;&lt;/div&gt;&lt;div style=&quot;font-size: 22px;&quot;&gt;&lt;font style=&quot;font-size: 22px;&quot; data-font-src=&quot;https://fonts.googleapis.com/css?family=Noto+Sans&quot;&gt;(Location, Timing, Design)&lt;br&gt;&lt;/font&gt;&lt;/div&gt;" style="rounded=0;whiteSpace=wrap;html=1;direction=south;fontFamily=Noto Sans;fontSource=https%3A%2F%2Ffonts.googleapis.com%2Fcss%3Ffamily%3DNoto%2BSans;fillColor=#ffe6cc;strokeColor=#d79b00;" vertex="1" parent="1">
          <mxGeometry x="680" y="400" width="240" height="120" as="geometry" />
        </mxCell>
        <mxCell id="FjmwERVzqnJXqa8R_X29-44" style="edgeStyle=orthogonalEdgeStyle;rounded=0;orthogonalLoop=1;jettySize=auto;html=1;exitX=0.5;exitY=1;exitDx=0;exitDy=0;entryX=0.5;entryY=0;entryDx=0;entryDy=0;" edge="1" parent="1" source="FjmwERVzqnJXqa8R_X29-3" target="FjmwERVzqnJXqa8R_X29-7">
          <mxGeometry relative="1" as="geometry" />
        </mxCell>
        <mxCell id="FjmwERVzqnJXqa8R_X29-48" style="edgeStyle=orthogonalEdgeStyle;rounded=0;orthogonalLoop=1;jettySize=auto;html=1;exitX=1;exitY=0.5;exitDx=0;exitDy=0;entryX=0;entryY=0.5;entryDx=0;entryDy=0;" edge="1" parent="1" source="FjmwERVzqnJXqa8R_X29-3" target="FjmwERVzqnJXqa8R_X29-4">
          <mxGeometry relative="1" as="geometry" />
        </mxCell>
        <mxCell id="FjmwERVzqnJXqa8R_X29-3" value="&lt;div&gt;&lt;font style=&quot;font-size: 25px;&quot; data-font-src=&quot;https://fonts.googleapis.com/css?family=Noto+Sans&quot;&gt;Observation Unit&lt;br&gt;&lt;/font&gt;&lt;/div&gt;&lt;div style=&quot;font-size: 22px;&quot;&gt;&lt;font style=&quot;font-size: 22px;&quot; data-font-src=&quot;https://fonts.googleapis.com/css?family=Noto+Sans&quot;&gt;(Type, Coordinates)&lt;br&gt;&lt;/font&gt;&lt;/div&gt;" style="rounded=0;whiteSpace=wrap;html=1;direction=south;fontFamily=Noto Sans;fontSource=https%3A%2F%2Ffonts.googleapis.com%2Fcss%3Ffamily%3DNoto%2BSans;fillColor=#ffe6cc;strokeColor=#d79b00;" vertex="1" parent="1">
          <mxGeometry x="680" y="760" width="240" height="120" as="geometry" />
        </mxCell>
        <mxCell id="FjmwERVzqnJXqa8R_X29-4" value="&lt;div&gt;&lt;font style=&quot;font-size: 25px;&quot; data-font-src=&quot;https://fonts.googleapis.com/css?family=Noto+Sans&quot;&gt;Sample&lt;br&gt;&lt;/font&gt;&lt;/div&gt;&lt;div style=&quot;font-size: 22px;&quot;&gt;&lt;font style=&quot;font-size: 22px;&quot; data-font-src=&quot;https://fonts.googleapis.com/css?family=Noto+Sans&quot;&gt;(Collection, Anatomy, Development Stage)&lt;br&gt;&lt;/font&gt;&lt;/div&gt;" style="rounded=0;whiteSpace=wrap;html=1;direction=south;fontFamily=Noto Sans;fontSource=https%3A%2F%2Ffonts.googleapis.com%2Fcss%3Ffamily%3DNoto%2BSans;fillColor=#f5f5f5;fontColor=#333333;strokeColor=#666666;" vertex="1" parent="1">
          <mxGeometry x="680" y="1040" width="240" height="120" as="geometry" />
        </mxCell>
        <mxCell id="FjmwERVzqnJXqa8R_X29-5" value="&lt;div&gt;&lt;font style=&quot;font-size: 25px;&quot; data-font-src=&quot;https://fonts.googleapis.com/css?family=Noto+Sans&quot;&gt;Person&lt;/font&gt;&lt;/div&gt;&lt;div style=&quot;font-size: 22px;&quot;&gt;&lt;font style=&quot;font-size: 22px;&quot; data-font-src=&quot;https://fonts.googleapis.com/css?family=Noto+Sans&quot;&gt;(Name, Contact, Affiliations)&lt;br&gt;&lt;/font&gt;&lt;/div&gt;" style="rounded=0;whiteSpace=wrap;html=1;direction=south;fontFamily=Noto Sans;fontSource=https%3A%2F%2Ffonts.googleapis.com%2Fcss%3Ffamily%3DNoto%2BSans;fillColor=#f5f5f5;fontColor=#333333;strokeColor=#666666;" vertex="1" parent="1">
          <mxGeometry x="360" y="220" width="240" height="120" as="geometry" />
        </mxCell>
        <mxCell id="FjmwERVzqnJXqa8R_X29-45" style="edgeStyle=orthogonalEdgeStyle;rounded=0;orthogonalLoop=1;jettySize=auto;html=1;exitX=1;exitY=0.5;exitDx=0;exitDy=0;entryX=0;entryY=0.5;entryDx=0;entryDy=0;" edge="1" parent="1" source="FjmwERVzqnJXqa8R_X29-6" target="FjmwERVzqnJXqa8R_X29-7">
          <mxGeometry relative="1" as="geometry" />
        </mxCell>
        <mxCell id="FjmwERVzqnJXqa8R_X29-6" value="&lt;div&gt;&lt;font style=&quot;font-size: 25px;&quot; data-font-src=&quot;https://fonts.googleapis.com/css?family=Noto+Sans&quot;&gt;Factor&lt;/font&gt;&lt;/div&gt;&lt;div style=&quot;font-size: 22px;&quot;&gt;&lt;font style=&quot;font-size: 22px;&quot; data-font-src=&quot;https://fonts.googleapis.com/css?family=Noto+Sans&quot;&gt;(Type)&lt;br&gt;&lt;/font&gt;&lt;/div&gt;" style="rounded=0;whiteSpace=wrap;html=1;direction=south;fontFamily=Noto Sans;fontSource=https%3A%2F%2Ffonts.googleapis.com%2Fcss%3Ffamily%3DNoto%2BSans;fillColor=#f5f5f5;fontColor=#333333;strokeColor=#666666;" vertex="1" parent="1">
          <mxGeometry x="40" y="400" width="240" height="120" as="geometry" />
        </mxCell>
        <mxCell id="FjmwERVzqnJXqa8R_X29-7" value="&lt;div&gt;&lt;font style=&quot;font-size: 25px;&quot; data-font-src=&quot;https://fonts.googleapis.com/css?family=Noto+Sans&quot;&gt;Factor Value&lt;br&gt;&lt;/font&gt;&lt;/div&gt;" style="rounded=0;whiteSpace=wrap;html=1;direction=south;fontFamily=Noto Sans;fontSource=https%3A%2F%2Ffonts.googleapis.com%2Fcss%3Ffamily%3DNoto%2BSans;fillColor=#f5f5f5;fontColor=#333333;strokeColor=#666666;" vertex="1" parent="1">
          <mxGeometry x="40" y="760" width="240" height="120" as="geometry" />
        </mxCell>
        <mxCell id="FjmwERVzqnJXqa8R_X29-9" value="&lt;div&gt;&lt;font style=&quot;font-size: 25px;&quot; data-font-src=&quot;https://fonts.googleapis.com/css?family=Noto+Sans&quot;&gt;Biological Material&lt;br&gt;&lt;/font&gt;&lt;/div&gt;&lt;div style=&quot;font-size: 22px;&quot;&gt;&lt;font style=&quot;font-size: 22px;&quot; data-font-src=&quot;https://fonts.googleapis.com/css?family=Noto+Sans&quot;&gt;(Organism, Source)&lt;br&gt;&lt;/font&gt;&lt;/div&gt;" style="rounded=0;whiteSpace=wrap;html=1;direction=south;fontFamily=Noto Sans;fontSource=https%3A%2F%2Ffonts.googleapis.com%2Fcss%3Ffamily%3DNoto%2BSans;fillColor=#d5e8d4;strokeColor=#82b366;" vertex="1" parent="1">
          <mxGeometry x="360" y="580" width="240" height="120" as="geometry" />
        </mxCell>
        <mxCell id="FjmwERVzqnJXqa8R_X29-11" value="&lt;font style=&quot;font-size: 25px;&quot; data-font-src=&quot;https://fonts.googleapis.com/css?family=Noto+Sans&quot;&gt;Event Date&lt;/font&gt;" style="rounded=0;whiteSpace=wrap;html=1;direction=south;fontFamily=Noto Sans;fontSource=https%3A%2F%2Ffonts.googleapis.com%2Fcss%3Ffamily%3DNoto%2BSans;fillColor=#f5f5f5;fontColor=#333333;strokeColor=#666666;" vertex="1" parent="1">
          <mxGeometry x="1320" y="400" width="240" height="120" as="geometry" />
        </mxCell>
        <mxCell id="FjmwERVzqnJXqa8R_X29-12" value="&lt;font style=&quot;font-size: 25px;&quot;&gt;Parameter Value&lt;br&gt;&lt;/font&gt;" style="rounded=0;whiteSpace=wrap;html=1;direction=south;fontFamily=Noto Sans;fontSource=https%3A%2F%2Ffonts.googleapis.com%2Fcss%3Ffamily%3DNoto%2BSans;fillColor=#f5f5f5;fontColor=#333333;strokeColor=#666666;" vertex="1" parent="1">
          <mxGeometry x="1320" y="220" width="240" height="120" as="geometry" />
        </mxCell>
        <mxCell id="FjmwERVzqnJXqa8R_X29-40" style="edgeStyle=orthogonalEdgeStyle;rounded=0;orthogonalLoop=1;jettySize=auto;html=1;exitX=0.5;exitY=0;exitDx=0;exitDy=0;entryX=0.5;entryY=1;entryDx=0;entryDy=0;" edge="1" parent="1" source="FjmwERVzqnJXqa8R_X29-13" target="FjmwERVzqnJXqa8R_X29-12">
          <mxGeometry relative="1" as="geometry" />
        </mxCell>
        <mxCell id="FjmwERVzqnJXqa8R_X29-13" value="&lt;div style=&quot;font-size: 25px;&quot;&gt;&lt;font style=&quot;font-size: 25px;&quot;&gt;Environment Parameter&lt;/font&gt;&lt;font style=&quot;font-size: 25px;&quot; data-font-src=&quot;https://fonts.googleapis.com/css?family=Noto+Sans&quot;&gt;&lt;br&gt;&lt;/font&gt;&lt;/div&gt;" style="rounded=0;whiteSpace=wrap;html=1;direction=south;fontFamily=Noto Sans;fontSource=https%3A%2F%2Ffonts.googleapis.com%2Fcss%3Ffamily%3DNoto%2BSans;fillColor=#f5f5f5;fontColor=#333333;strokeColor=#666666;" vertex="1" parent="1">
          <mxGeometry x="1000" y="220" width="240" height="120" as="geometry" />
        </mxCell>
        <mxCell id="FjmwERVzqnJXqa8R_X29-14" value="&lt;div&gt;&lt;font style=&quot;font-size: 25px;&quot; data-font-src=&quot;https://fonts.googleapis.com/css?family=Noto+Sans&quot;&gt;Publication&lt;/font&gt;&lt;/div&gt;&lt;div style=&quot;font-size: 22px;&quot;&gt;&lt;font style=&quot;font-size: 22px;&quot; data-font-src=&quot;https://fonts.googleapis.com/css?family=Noto+Sans&quot;&gt;(DOI)&lt;br&gt;&lt;/font&gt;&lt;/div&gt;" style="rounded=0;whiteSpace=wrap;html=1;direction=south;fontFamily=Noto Sans;fontSource=https%3A%2F%2Ffonts.googleapis.com%2Fcss%3Ffamily%3DNoto%2BSans;fillColor=#f5f5f5;fontColor=#333333;strokeColor=#666666;" vertex="1" parent="1">
          <mxGeometry x="1000" y="40" width="240" height="120" as="geometry" />
        </mxCell>
        <mxCell id="FjmwERVzqnJXqa8R_X29-41" style="edgeStyle=orthogonalEdgeStyle;rounded=0;orthogonalLoop=1;jettySize=auto;html=1;exitX=0.5;exitY=0;exitDx=0;exitDy=0;entryX=0.5;entryY=1;entryDx=0;entryDy=0;" edge="1" parent="1" source="FjmwERVzqnJXqa8R_X29-15" target="FjmwERVzqnJXqa8R_X29-11">
          <mxGeometry relative="1" as="geometry" />
        </mxCell>
        <mxCell id="FjmwERVzqnJXqa8R_X29-15" value="&lt;div&gt;&lt;font style=&quot;font-size: 25px;&quot; data-font-src=&quot;https://fonts.googleapis.com/css?family=Noto+Sans&quot;&gt;Event&lt;/font&gt;&lt;/div&gt;&lt;div style=&quot;font-size: 22px;&quot;&gt;&lt;font style=&quot;font-size: 22px;&quot; data-font-src=&quot;https://fonts.googleapis.com/css?family=Noto+Sans&quot;&gt;(Type, Description)&lt;br&gt;&lt;/font&gt;&lt;/div&gt;" style="rounded=0;whiteSpace=wrap;html=1;direction=south;fontFamily=Noto Sans;fontSource=https%3A%2F%2Ffonts.googleapis.com%2Fcss%3Ffamily%3DNoto%2BSans;fillColor=#f5f5f5;fontColor=#333333;strokeColor=#666666;" vertex="1" parent="1">
          <mxGeometry x="1000" y="400" width="240" height="120" as="geometry" />
        </mxCell>
        <mxCell id="FjmwERVzqnJXqa8R_X29-16" value="&lt;div style=&quot;font-size: 25px;&quot;&gt;Observed Variable&lt;/div&gt;&lt;div style=&quot;font-size: 22px;&quot;&gt;(Trait, Method, Scale)&lt;br&gt;&lt;/div&gt;" style="rounded=0;whiteSpace=wrap;html=1;direction=south;fontFamily=Noto Sans;fontSource=https%3A%2F%2Ffonts.googleapis.com%2Fcss%3Ffamily%3DNoto%2BSans;fillColor=#ffe6cc;strokeColor=#d79b00;" vertex="1" parent="1">
          <mxGeometry x="1320" y="760" width="240" height="120" as="geometry" />
        </mxCell>
        <mxCell id="FjmwERVzqnJXqa8R_X29-42" style="edgeStyle=orthogonalEdgeStyle;rounded=0;orthogonalLoop=1;jettySize=auto;html=1;exitX=1;exitY=0.5;exitDx=0;exitDy=0;entryX=0.5;entryY=1;entryDx=0;entryDy=0;" edge="1" parent="1" source="FjmwERVzqnJXqa8R_X29-17" target="FjmwERVzqnJXqa8R_X29-16">
          <mxGeometry relative="1" as="geometry" />
        </mxCell>
        <mxCell id="FjmwERVzqnJXqa8R_X29-43" style="edgeStyle=orthogonalEdgeStyle;rounded=0;orthogonalLoop=1;jettySize=auto;html=1;exitX=0;exitY=0.5;exitDx=0;exitDy=0;entryX=0.5;entryY=0;entryDx=0;entryDy=0;" edge="1" parent="1" source="FjmwERVzqnJXqa8R_X29-17" target="FjmwERVzqnJXqa8R_X29-3">
          <mxGeometry relative="1" as="geometry" />
        </mxCell>
        <mxCell id="FjmwERVzqnJXqa8R_X29-17" value="&lt;font style=&quot;font-size: 25px;&quot;&gt;Data File&lt;/font&gt;" style="rhombus;whiteSpace=wrap;html=1;fontFamily=Noto Sans;fontSource=https%3A%2F%2Ffonts.googleapis.com%2Fcss%3Ffamily%3DNoto%2BSans;fillColor=#f5f5f5;fontColor=#333333;strokeColor=#666666;" vertex="1" parent="1">
          <mxGeometry x="1040" y="760" width="160" height="120" as="geometry" />
        </mxCell>
        <mxCell id="FjmwERVzqnJXqa8R_X29-35" value="" style="endArrow=classic;html=1;rounded=0;exitX=1;exitY=0.75;exitDx=0;exitDy=0;entryX=0;entryY=0;entryDx=0;entryDy=0;" edge="1" parent="1" source="FjmwERVzqnJXqa8R_X29-1" target="FjmwERVzqnJXqa8R_X29-5">
          <mxGeometry width="50" height="50" relative="1" as="geometry">
            <mxPoint x="500" y="290" as="sourcePoint" />
            <mxPoint x="740" y="290" as="targetPoint" />
          </mxGeometry>
        </mxCell>
        <mxCell id="FjmwERVzqnJXqa8R_X29-36" value="" style="endArrow=classic;html=1;rounded=0;exitX=0;exitY=0.75;exitDx=0;exitDy=0;entryX=1;entryY=0;entryDx=0;entryDy=0;" edge="1" parent="1" source="FjmwERVzqnJXqa8R_X29-2" target="FjmwERVzqnJXqa8R_X29-5">
          <mxGeometry width="50" height="50" relative="1" as="geometry">
            <mxPoint x="420" y="460" as="sourcePoint" />
            <mxPoint x="470" y="410" as="targetPoint" />
          </mxGeometry>
        </mxCell>
        <mxCell id="FjmwERVzqnJXqa8R_X29-37" value="" style="endArrow=classic;html=1;rounded=0;entryX=0;entryY=0.5;entryDx=0;entryDy=0;exitX=1;exitY=0.5;exitDx=0;exitDy=0;" edge="1" parent="1" source="FjmwERVzqnJXqa8R_X29-1" target="FjmwERVzqnJXqa8R_X29-2">
          <mxGeometry width="50" height="50" relative="1" as="geometry">
            <mxPoint x="500" y="290" as="sourcePoint" />
            <mxPoint x="550" y="240" as="targetPoint" />
          </mxGeometry>
        </mxCell>
        <mxCell id="FjmwERVzqnJXqa8R_X29-47" value="" style="endArrow=classic;html=1;rounded=0;entryX=0;entryY=0;entryDx=0;entryDy=0;exitX=1;exitY=0.75;exitDx=0;exitDy=0;" edge="1" parent="1" source="FjmwERVzqnJXqa8R_X29-2" target="FjmwERVzqnJXqa8R_X29-9">
          <mxGeometry width="50" height="50" relative="1" as="geometry">
            <mxPoint x="500" y="290" as="sourcePoint" />
            <mxPoint x="550" y="240" as="targetPoint" />
          </mxGeometry>
        </mxCell>
        <mxCell id="FjmwERVzqnJXqa8R_X29-50" value="" style="endArrow=classic;html=1;rounded=0;exitX=0;exitY=1;exitDx=0;exitDy=0;entryX=0;entryY=0;entryDx=0;entryDy=0;" edge="1" parent="1" source="FjmwERVzqnJXqa8R_X29-17" target="FjmwERVzqnJXqa8R_X29-4">
          <mxGeometry width="50" height="50" relative="1" as="geometry">
            <mxPoint x="790" y="510" as="sourcePoint" />
            <mxPoint x="1020" y="1040" as="targetPoint" />
          </mxGeometry>
        </mxCell>
        <mxCell id="FjmwERVzqnJXqa8R_X29-51" value="" style="endArrow=classic;html=1;rounded=0;entryX=0;entryY=0;entryDx=0;entryDy=0;exitX=1;exitY=0.25;exitDx=0;exitDy=0;" edge="1" parent="1" source="FjmwERVzqnJXqa8R_X29-2" target="FjmwERVzqnJXqa8R_X29-17">
          <mxGeometry width="50" height="50" relative="1" as="geometry">
            <mxPoint x="900" y="570" as="sourcePoint" />
            <mxPoint x="840" y="460" as="targetPoint" />
          </mxGeometry>
        </mxCell>
        <mxCell id="FjmwERVzqnJXqa8R_X29-52" value="" style="endArrow=classic;html=1;rounded=0;entryX=0;entryY=1;entryDx=0;entryDy=0;exitX=1;exitY=0;exitDx=0;exitDy=0;" edge="1" parent="1" source="FjmwERVzqnJXqa8R_X29-2" target="FjmwERVzqnJXqa8R_X29-16">
          <mxGeometry width="50" height="50" relative="1" as="geometry">
            <mxPoint x="790" y="510" as="sourcePoint" />
            <mxPoint x="840" y="460" as="targetPoint" />
          </mxGeometry>
        </mxCell>
        <mxCell id="FjmwERVzqnJXqa8R_X29-53" value="" style="endArrow=classic;html=1;rounded=0;entryX=1;entryY=1;entryDx=0;entryDy=0;exitX=0;exitY=0;exitDx=0;exitDy=0;" edge="1" parent="1" source="FjmwERVzqnJXqa8R_X29-2" target="FjmwERVzqnJXqa8R_X29-13">
          <mxGeometry width="50" height="50" relative="1" as="geometry">
            <mxPoint x="790" y="510" as="sourcePoint" />
            <mxPoint x="840" y="460" as="targetPoint" />
          </mxGeometry>
        </mxCell>
        <mxCell id="FjmwERVzqnJXqa8R_X29-54" value="" style="endArrow=classic;html=1;rounded=0;entryX=1;entryY=0.5;entryDx=0;entryDy=0;exitX=0;exitY=0.25;exitDx=0;exitDy=0;" edge="1" parent="1" source="FjmwERVzqnJXqa8R_X29-3" target="FjmwERVzqnJXqa8R_X29-15">
          <mxGeometry width="50" height="50" relative="1" as="geometry">
            <mxPoint x="790" y="510" as="sourcePoint" />
            <mxPoint x="840" y="460" as="targetPoint" />
          </mxGeometry>
        </mxCell>
        <mxCell id="FjmwERVzqnJXqa8R_X29-64" value="2..n" style="text;html=1;strokeColor=none;fillColor=none;align=center;verticalAlign=middle;whiteSpace=wrap;rounded=0;fontFamily=Noto Sans;fontSource=https%3A%2F%2Ffonts.googleapis.com%2Fcss%3Ffamily%3DNoto%2BSans;fontSize=18;" vertex="1" parent="1">
          <mxGeometry x="160" y="690" width="60" height="30" as="geometry" />
        </mxCell>
        <mxCell id="FjmwERVzqnJXqa8R_X29-65" value="1" style="text;html=1;strokeColor=none;fillColor=none;align=center;verticalAlign=middle;whiteSpace=wrap;rounded=0;fontFamily=Noto Sans;fontSource=https%3A%2F%2Ffonts.googleapis.com%2Fcss%3Ffamily%3DNoto%2BSans;fontSize=18;" vertex="1" parent="1">
          <mxGeometry x="160" y="560" width="60" height="30" as="geometry" />
        </mxCell>
        <mxCell id="FjmwERVzqnJXqa8R_X29-66" value="0..n" style="text;html=1;strokeColor=none;fillColor=none;align=center;verticalAlign=middle;whiteSpace=wrap;rounded=0;fontFamily=Noto Sans;fontSource=https%3A%2F%2Ffonts.googleapis.com%2Fcss%3Ffamily%3DNoto%2BSans;fontSize=18;" vertex="1" parent="1">
          <mxGeometry x="320" y="420" width="60" height="30" as="geometry" />
        </mxCell>
        <mxCell id="FjmwERVzqnJXqa8R_X29-67" value="1" style="text;html=1;strokeColor=none;fillColor=none;align=center;verticalAlign=middle;whiteSpace=wrap;rounded=0;fontFamily=Noto Sans;fontSource=https%3A%2F%2Ffonts.googleapis.com%2Fcss%3Ffamily%3DNoto%2BSans;fontSize=18;" vertex="1" parent="1">
          <mxGeometry x="580" y="420" width="60" height="30" as="geometry" />
        </mxCell>
        <mxCell id="FjmwERVzqnJXqa8R_X29-68" value="1..n" style="text;html=1;strokeColor=none;fillColor=none;align=center;verticalAlign=middle;whiteSpace=wrap;rounded=0;fontFamily=Noto Sans;fontSource=https%3A%2F%2Ffonts.googleapis.com%2Fcss%3Ffamily%3DNoto%2BSans;fontSize=18;" vertex="1" parent="1">
          <mxGeometry x="620" y="510" width="60" height="30" as="geometry" />
        </mxCell>
        <mxCell id="FjmwERVzqnJXqa8R_X29-69" value="1..n" style="text;html=1;strokeColor=none;fillColor=none;align=center;verticalAlign=middle;whiteSpace=wrap;rounded=0;fontFamily=Noto Sans;fontSource=https%3A%2F%2Ffonts.googleapis.com%2Fcss%3Ffamily%3DNoto%2BSans;fontSize=18;" vertex="1" parent="1">
          <mxGeometry x="560" y="540" width="60" height="30" as="geometry" />
        </mxCell>
        <mxCell id="FjmwERVzqnJXqa8R_X29-70" value="1..n" style="text;html=1;strokeColor=none;fillColor=none;align=center;verticalAlign=middle;whiteSpace=wrap;rounded=0;fontFamily=Noto Sans;fontSource=https%3A%2F%2Ffonts.googleapis.com%2Fcss%3Ffamily%3DNoto%2BSans;fontSize=18;" vertex="1" parent="1">
          <mxGeometry x="620" y="680" width="60" height="30" as="geometry" />
        </mxCell>
        <mxCell id="FjmwERVzqnJXqa8R_X29-71" value="" style="endArrow=classic;html=1;rounded=0;entryX=1;entryY=0;entryDx=0;entryDy=0;exitX=0;exitY=0.75;exitDx=0;exitDy=0;" edge="1" parent="1" source="FjmwERVzqnJXqa8R_X29-3" target="FjmwERVzqnJXqa8R_X29-9">
          <mxGeometry width="50" height="50" relative="1" as="geometry">
            <mxPoint x="750" y="530" as="sourcePoint" />
            <mxPoint x="610" y="590" as="targetPoint" />
          </mxGeometry>
        </mxCell>
        <mxCell id="FjmwERVzqnJXqa8R_X29-72" value="1..n" style="text;html=1;strokeColor=none;fillColor=none;align=center;verticalAlign=middle;whiteSpace=wrap;rounded=0;fontFamily=Noto Sans;fontSource=https%3A%2F%2Ffonts.googleapis.com%2Fcss%3Ffamily%3DNoto%2BSans;fontSize=18;" vertex="1" parent="1">
          <mxGeometry x="700" y="710" width="60" height="30" as="geometry" />
        </mxCell>
        <mxCell id="FjmwERVzqnJXqa8R_X29-73" value="1..n" style="text;html=1;strokeColor=none;fillColor=none;align=center;verticalAlign=middle;whiteSpace=wrap;rounded=0;fontFamily=Noto Sans;fontSource=https%3A%2F%2Ffonts.googleapis.com%2Fcss%3Ffamily%3DNoto%2BSans;fontSize=18;" vertex="1" parent="1">
          <mxGeometry x="580" y="780" width="60" height="30" as="geometry" />
        </mxCell>
        <mxCell id="FjmwERVzqnJXqa8R_X29-74" value="0..n" style="text;html=1;strokeColor=none;fillColor=none;align=center;verticalAlign=middle;whiteSpace=wrap;rounded=0;fontFamily=Noto Sans;fontSource=https%3A%2F%2Ffonts.googleapis.com%2Fcss%3Ffamily%3DNoto%2BSans;fontSize=18;" vertex="1" parent="1">
          <mxGeometry x="320" y="780" width="60" height="30" as="geometry" />
        </mxCell>
        <mxCell id="FjmwERVzqnJXqa8R_X29-75" value="1..n" style="text;html=1;strokeColor=none;fillColor=none;align=center;verticalAlign=middle;whiteSpace=wrap;rounded=0;fontFamily=Noto Sans;fontSource=https%3A%2F%2Ffonts.googleapis.com%2Fcss%3Ffamily%3DNoto%2BSans;fontSize=18;" vertex="1" parent="1">
          <mxGeometry x="800" y="690" width="60" height="30" as="geometry" />
        </mxCell>
        <mxCell id="FjmwERVzqnJXqa8R_X29-76" value="1" style="text;html=1;strokeColor=none;fillColor=none;align=center;verticalAlign=middle;whiteSpace=wrap;rounded=0;fontFamily=Noto Sans;fontSource=https%3A%2F%2Ffonts.googleapis.com%2Fcss%3Ffamily%3DNoto%2BSans;fontSize=18;" vertex="1" parent="1">
          <mxGeometry x="790" y="560" width="60" height="30" as="geometry" />
        </mxCell>
        <mxCell id="FjmwERVzqnJXqa8R_X29-77" value="1" style="text;html=1;strokeColor=none;fillColor=none;align=center;verticalAlign=middle;whiteSpace=wrap;rounded=0;fontFamily=Noto Sans;fontSource=https%3A%2F%2Ffonts.googleapis.com%2Fcss%3Ffamily%3DNoto%2BSans;fontSize=18;" vertex="1" parent="1">
          <mxGeometry x="860" y="570" width="60" height="30" as="geometry" />
        </mxCell>
        <mxCell id="FjmwERVzqnJXqa8R_X29-78" value="0..n" style="text;html=1;strokeColor=none;fillColor=none;align=center;verticalAlign=middle;whiteSpace=wrap;rounded=0;fontFamily=Noto Sans;fontSource=https%3A%2F%2Ffonts.googleapis.com%2Fcss%3Ffamily%3DNoto%2BSans;fontSize=18;" vertex="1" parent="1">
          <mxGeometry x="610" y="310" width="60" height="30" as="geometry" />
        </mxCell>
        <mxCell id="FjmwERVzqnJXqa8R_X29-79" value="0..n" style="text;html=1;strokeColor=none;fillColor=none;align=center;verticalAlign=middle;whiteSpace=wrap;rounded=0;fontFamily=Noto Sans;fontSource=https%3A%2F%2Ffonts.googleapis.com%2Fcss%3Ffamily%3DNoto%2BSans;fontSize=18;" vertex="1" parent="1">
          <mxGeometry x="680" y="350" width="60" height="30" as="geometry" />
        </mxCell>
        <mxCell id="FjmwERVzqnJXqa8R_X29-80" value="1" style="text;html=1;strokeColor=none;fillColor=none;align=center;verticalAlign=middle;whiteSpace=wrap;rounded=0;fontFamily=Noto Sans;fontSource=https%3A%2F%2Ffonts.googleapis.com%2Fcss%3Ffamily%3DNoto%2BSans;fontSize=18;" vertex="1" parent="1">
          <mxGeometry x="800" y="170" width="60" height="30" as="geometry" />
        </mxCell>
        <mxCell id="FjmwERVzqnJXqa8R_X29-81" value="1" style="text;html=1;strokeColor=none;fillColor=none;align=center;verticalAlign=middle;whiteSpace=wrap;rounded=0;fontFamily=Noto Sans;fontSource=https%3A%2F%2Ffonts.googleapis.com%2Fcss%3Ffamily%3DNoto%2BSans;fontSize=18;" vertex="1" parent="1">
          <mxGeometry x="630" y="150" width="60" height="30" as="geometry" />
        </mxCell>
        <mxCell id="FjmwERVzqnJXqa8R_X29-82" value="1" style="text;html=1;strokeColor=none;fillColor=none;align=center;verticalAlign=middle;whiteSpace=wrap;rounded=0;fontFamily=Noto Sans;fontSource=https%3A%2F%2Ffonts.googleapis.com%2Fcss%3Ffamily%3DNoto%2BSans;fontSize=18;" vertex="1" parent="1">
          <mxGeometry x="900" y="60" width="60" height="30" as="geometry" />
        </mxCell>
        <mxCell id="FjmwERVzqnJXqa8R_X29-83" value="1" style="text;html=1;strokeColor=none;fillColor=none;align=center;verticalAlign=middle;whiteSpace=wrap;rounded=0;fontFamily=Noto Sans;fontSource=https%3A%2F%2Ffonts.googleapis.com%2Fcss%3Ffamily%3DNoto%2BSans;fontSize=18;" vertex="1" parent="1">
          <mxGeometry x="880" y="360" width="60" height="30" as="geometry" />
        </mxCell>
        <mxCell id="FjmwERVzqnJXqa8R_X29-84" value="1" style="text;html=1;strokeColor=none;fillColor=none;align=center;verticalAlign=middle;whiteSpace=wrap;rounded=0;fontFamily=Noto Sans;fontSource=https%3A%2F%2Ffonts.googleapis.com%2Fcss%3Ffamily%3DNoto%2BSans;fontSize=18;" vertex="1" parent="1">
          <mxGeometry x="900" y="430" width="60" height="30" as="geometry" />
        </mxCell>
        <mxCell id="FjmwERVzqnJXqa8R_X29-85" value="1" style="text;html=1;strokeColor=none;fillColor=none;align=center;verticalAlign=middle;whiteSpace=wrap;rounded=0;fontFamily=Noto Sans;fontSource=https%3A%2F%2Ffonts.googleapis.com%2Fcss%3Ffamily%3DNoto%2BSans;fontSize=18;" vertex="1" parent="1">
          <mxGeometry x="790" y="890" width="60" height="30" as="geometry" />
        </mxCell>
        <mxCell id="FjmwERVzqnJXqa8R_X29-86" value="0..n" style="text;html=1;strokeColor=none;fillColor=none;align=center;verticalAlign=middle;whiteSpace=wrap;rounded=0;fontFamily=Noto Sans;fontSource=https%3A%2F%2Ffonts.googleapis.com%2Fcss%3Ffamily%3DNoto%2BSans;fontSize=18;" vertex="1" parent="1">
          <mxGeometry x="800" y="1000" width="60" height="30" as="geometry" />
        </mxCell>
        <mxCell id="FjmwERVzqnJXqa8R_X29-87" value="0..n" style="text;html=1;strokeColor=none;fillColor=none;align=center;verticalAlign=middle;whiteSpace=wrap;rounded=0;fontFamily=Noto Sans;fontSource=https%3A%2F%2Ffonts.googleapis.com%2Fcss%3Ffamily%3DNoto%2BSans;fontSize=18;" vertex="1" parent="1">
          <mxGeometry x="900" y="720" width="60" height="30" as="geometry" />
        </mxCell>
        <mxCell id="FjmwERVzqnJXqa8R_X29-88" value="0..n" style="text;html=1;strokeColor=none;fillColor=none;align=center;verticalAlign=middle;whiteSpace=wrap;rounded=0;fontFamily=Noto Sans;fontSource=https%3A%2F%2Ffonts.googleapis.com%2Fcss%3Ffamily%3DNoto%2BSans;fontSize=18;" vertex="1" parent="1">
          <mxGeometry x="930" y="320" width="60" height="30" as="geometry" />
        </mxCell>
        <mxCell id="FjmwERVzqnJXqa8R_X29-89" value="1..n" style="text;html=1;strokeColor=none;fillColor=none;align=center;verticalAlign=middle;whiteSpace=wrap;rounded=0;fontFamily=Noto Sans;fontSource=https%3A%2F%2Ffonts.googleapis.com%2Fcss%3Ffamily%3DNoto%2BSans;fontSize=18;" vertex="1" parent="1">
          <mxGeometry x="1000" y="750" width="60" height="30" as="geometry" />
        </mxCell>
        <mxCell id="FjmwERVzqnJXqa8R_X29-90" value="0..n" style="text;html=1;strokeColor=none;fillColor=none;align=center;verticalAlign=middle;whiteSpace=wrap;rounded=0;fontFamily=Noto Sans;fontSource=https%3A%2F%2Ffonts.googleapis.com%2Fcss%3Ffamily%3DNoto%2BSans;fontSize=18;" vertex="1" parent="1">
          <mxGeometry x="920" y="790" width="60" height="30" as="geometry" />
        </mxCell>
        <mxCell id="FjmwERVzqnJXqa8R_X29-91" value="0..n" style="text;html=1;strokeColor=none;fillColor=none;align=center;verticalAlign=middle;whiteSpace=wrap;rounded=0;fontFamily=Noto Sans;fontSource=https%3A%2F%2Ffonts.googleapis.com%2Fcss%3Ffamily%3DNoto%2BSans;fontSize=18;" vertex="1" parent="1">
          <mxGeometry x="990" y="790" width="60" height="30" as="geometry" />
        </mxCell>
        <mxCell id="FjmwERVzqnJXqa8R_X29-92" value="0..n" style="text;html=1;strokeColor=none;fillColor=none;align=center;verticalAlign=middle;whiteSpace=wrap;rounded=0;fontFamily=Noto Sans;fontSource=https%3A%2F%2Ffonts.googleapis.com%2Fcss%3Ffamily%3DNoto%2BSans;fontSize=18;" vertex="1" parent="1">
          <mxGeometry x="1060" y="880" width="60" height="30" as="geometry" />
        </mxCell>
        <mxCell id="FjmwERVzqnJXqa8R_X29-93" value="0..n" style="text;html=1;strokeColor=none;fillColor=none;align=center;verticalAlign=middle;whiteSpace=wrap;rounded=0;fontFamily=Noto Sans;fontSource=https%3A%2F%2Ffonts.googleapis.com%2Fcss%3Ffamily%3DNoto%2BSans;fontSize=18;" vertex="1" parent="1">
          <mxGeometry x="940" y="1030" width="60" height="30" as="geometry" />
        </mxCell>
        <mxCell id="FjmwERVzqnJXqa8R_X29-94" value="0..n" style="text;html=1;strokeColor=none;fillColor=none;align=center;verticalAlign=middle;whiteSpace=wrap;rounded=0;fontFamily=Noto Sans;fontSource=https%3A%2F%2Ffonts.googleapis.com%2Fcss%3Ffamily%3DNoto%2BSans;fontSize=18;" vertex="1" parent="1">
          <mxGeometry x="1100" y="540" width="60" height="30" as="geometry" />
        </mxCell>
        <mxCell id="FjmwERVzqnJXqa8R_X29-95" value="1" style="text;html=1;strokeColor=none;fillColor=none;align=center;verticalAlign=middle;whiteSpace=wrap;rounded=0;fontFamily=Noto Sans;fontSource=https%3A%2F%2Ffonts.googleapis.com%2Fcss%3Ffamily%3DNoto%2BSans;fontSize=18;" vertex="1" parent="1">
          <mxGeometry x="1223" y="250" width="60" height="30" as="geometry" />
        </mxCell>
        <mxCell id="FjmwERVzqnJXqa8R_X29-98" value="1" style="text;html=1;strokeColor=none;fillColor=none;align=center;verticalAlign=middle;whiteSpace=wrap;rounded=0;fontFamily=Noto Sans;fontSource=https%3A%2F%2Ffonts.googleapis.com%2Fcss%3Ffamily%3DNoto%2BSans;fontSize=18;" vertex="1" parent="1">
          <mxGeometry x="1270" y="250" width="60" height="30" as="geometry" />
        </mxCell>
        <mxCell id="FjmwERVzqnJXqa8R_X29-99" value="1" style="text;html=1;strokeColor=none;fillColor=none;align=center;verticalAlign=middle;whiteSpace=wrap;rounded=0;fontFamily=Noto Sans;fontSource=https%3A%2F%2Ffonts.googleapis.com%2Fcss%3Ffamily%3DNoto%2BSans;fontSize=18;" vertex="1" parent="1">
          <mxGeometry x="1220" y="430" width="60" height="30" as="geometry" />
        </mxCell>
        <mxCell id="FjmwERVzqnJXqa8R_X29-100" value="1..n" style="text;html=1;strokeColor=none;fillColor=none;align=center;verticalAlign=middle;whiteSpace=wrap;rounded=0;fontFamily=Noto Sans;fontSource=https%3A%2F%2Ffonts.googleapis.com%2Fcss%3Ffamily%3DNoto%2BSans;fontSize=18;" vertex="1" parent="1">
          <mxGeometry x="1270" y="430" width="60" height="30" as="geometry" />
        </mxCell>
        <mxCell id="FjmwERVzqnJXqa8R_X29-102" value="1..n" style="text;html=1;strokeColor=none;fillColor=none;align=center;verticalAlign=middle;whiteSpace=wrap;rounded=0;fontFamily=Noto Sans;fontSource=https%3A%2F%2Ffonts.googleapis.com%2Fcss%3Ffamily%3DNoto%2BSans;fontSize=18;" vertex="1" parent="1">
          <mxGeometry x="960" y="520" width="60" height="30" as="geometry" />
        </mxCell>
        <mxCell id="FjmwERVzqnJXqa8R_X29-104" value="1..n" style="text;html=1;strokeColor=none;fillColor=none;align=center;verticalAlign=middle;whiteSpace=wrap;rounded=0;fontFamily=Noto Sans;fontSource=https%3A%2F%2Ffonts.googleapis.com%2Fcss%3Ffamily%3DNoto%2BSans;fontSize=18;" vertex="1" parent="1">
          <mxGeometry x="1240" y="690" width="60" height="30" as="geometry" />
        </mxCell>
        <mxCell id="FjmwERVzqnJXqa8R_X29-105" value="1..n" style="text;html=1;strokeColor=none;fillColor=none;align=center;verticalAlign=middle;whiteSpace=wrap;rounded=0;fontFamily=Noto Sans;fontSource=https%3A%2F%2Ffonts.googleapis.com%2Fcss%3Ffamily%3DNoto%2BSans;fontSize=18;" vertex="1" parent="1">
          <mxGeometry x="1190" y="821" width="60" height="30" as="geometry" />
        </mxCell>
        <mxCell id="FjmwERVzqnJXqa8R_X29-106" value="1..n" style="text;html=1;strokeColor=none;fillColor=none;align=center;verticalAlign=middle;whiteSpace=wrap;rounded=0;fontFamily=Noto Sans;fontSource=https%3A%2F%2Ffonts.googleapis.com%2Fcss%3Ffamily%3DNoto%2BSans;fontSize=18;" vertex="1" parent="1">
          <mxGeometry x="1260" y="821" width="60" height="30" as="geometry" />
        </mxCell>
        <mxCell id="FjmwERVzqnJXqa8R_X29-107" value="0..n" style="text;html=1;strokeColor=none;fillColor=none;align=center;verticalAlign=middle;whiteSpace=wrap;rounded=0;fontFamily=Noto Sans;fontSource=https%3A%2F%2Ffonts.googleapis.com%2Fcss%3Ffamily%3DNoto%2BSans;fontSize=18;" vertex="1" parent="1">
          <mxGeometry x="950" y="60" width="60" height="30" as="geometry" />
        </mxCell>
        <mxCell id="FjmwERVzqnJXqa8R_X29-108" value="0..n" style="text;html=1;strokeColor=none;fillColor=none;align=center;verticalAlign=middle;whiteSpace=wrap;rounded=0;fontFamily=Noto Sans;fontSource=https%3A%2F%2Ffonts.googleapis.com%2Fcss%3Ffamily%3DNoto%2BSans;fontSize=18;" vertex="1" parent="1">
          <mxGeometry x="560" y="180" width="60" height="30" as="geometry" />
        </mxCell>
        <mxCell id="FjmwERVzqnJXqa8R_X29-109" value="0..n" style="text;html=1;strokeColor=none;fillColor=none;align=center;verticalAlign=middle;whiteSpace=wrap;rounded=0;fontFamily=Noto Sans;fontSource=https%3A%2F%2Ffonts.googleapis.com%2Fcss%3Ffamily%3DNoto%2BSans;fontSize=18;" vertex="1" parent="1">
          <mxGeometry x="945" y="430" width="60" height="30" as="geometry" />
        </mxCell>
      </root>
    </mxGraphModel>
  </diagram>
</mxfile>
